<svg xmlns="http://www.w3.org/2000/svg" width="2280" height="528" fill="none" viewBox="0 0 2280 528">
  <path fill="#3468B0" fill-rule="evenodd" d="M336.5 215.7l-164.7 14-12.5 64.2L297 282l-15.6 78.7-137.7 11.5L114.2 518l-114 9.3 73.9-366.6L352 137l-15.6 78.6zm19.9 11.3l102.6-8.6-54.6 274.2-103.4 8.6L356.4 227zm591.5-55.6c44.6-3.7 79 4.4 103.1 24.2 28 23 37 58.4 27.5 106a182.3 182.3 0 0 1-71.3 113.8A221.4 221.4 0 0 1 890.5 459c-44.6 3.6-79-4.7-104-24.8-27.6-23-36.6-58.3-27-105.8a182.3 182.3 0 0 1 71.3-114 220.5 220.5 0 0 1 117-43.1zm-85.8 148c-4.1 20.8-2.7 37 5 48 7.5 11 20.3 16 38.6 14.4 37.5-3 60.8-27 70-71.7 3.8-20.1 2-35.8-5-46.8-7.4-11.6-20.1-16.7-38-15.2a68.4 68.4 0 0 0-46.3 22.3 98.4 98.4 0 0 0-24.3 49zm466.4-176.5l18-89.6 102.8-9-73 367.2-99.8 8.4 6-33.6-.6 1a151.4 151.4 0 0 1-97.6 46.5c-35.5 3.2-62.4-6.8-80.6-30-17.9-23.2-23-54-15.4-92.5 10.3-50.2 32.6-90.2 66.9-119.3 32.3-28.2 72.5-44.4 120.3-48.6l53-.5zm-42.2 70.6a100.2 100.2 0 0 0-63.7 27.7c-15.5 15-25.7 34-30.7 57-3.4 18.5-1.7 33 5.4 43.7 7.2 11 19 16 34.9 14.7 15.9-1.4 30-10 42.8-26 14-17.6 24-41.3 30.2-71.2l9-44.9-27.9-1zM1547 196a86.6 86.6 0 0 0-20 34.5l89-7.6c6-32.3-4.8-47.3-32.5-44.8A57.2 57.2 0 0 0 1547 196zm145.6-55.2c20.8 20.4 27.4 50.3 19.6 89.7l-6.6 34.3-189 15.7c-4 19.9 1 34 14.7 43.1 11.8 7.6 27.7 10.6 48 8.9 21.6-1.7 54.2-10.6 97.6-26l-25.7 77.7a523.1 523.1 0 0 1-105.9 19.3c-54.1 4.7-91.9-5.4-113.2-30.1-19.1-22.3-24.2-55.9-15.2-100.5a193.2 193.2 0 0 1 57.1-106c31.4-29.2 71.3-46 119.8-50.3 44.9-4 78 4 98.8 24.2zm152.6 0l.8 1c35-34 74-52.9 116.4-56 70.3-6.2 99 22.5 86 86l-36.8 186-103.1 8.5 29-146c2.8-13.8 2-24.6-2.6-32.7-5.3-9.5-15.7-14-30.8-12.7a69 69 0 0 0-45.1 23c-16.7 18.2-28.7 45.4-35.8 81.6l-19.4 95.6-103.1 9 55.1-274.6 97.5-8-8 39.3zM2242 139l-61.5 5.4-18.4 93c-5.1 24.6 2.4 36.4 22.8 34.9 12.5-1.2 26-5 40-11.2l-27 78.6a317 317 0 0 1-71.8 14.7c-29 2.5-49.5-.7-61.8-9.3-14.7-10.5-19-29.9-13.5-58l51-255.4L2209.1.8 2195 72.1l61.5-5L2242 139zm-1865.6-3.7l103.2-9-14.2 66.9-103 9 14-66.9z" clip-rule="evenodd"/>
  <path fill="#3468B0" fill-rule="evenodd" d="M677.6 201l-42.1 45.6-25.5-39-116.4 9.3 70 106.9L407 492.6l119.8-9.8 82-89.4 50.8 78.2 116-9.9-94.4-145 117.6-126.2L677.6 201zM2269.4 11.6a17.4 17.4 0 0 0-13-5.4c-4.9 0-9 1.7-12.7 5.4a17.1 17.1 0 0 0-5.4 12.5c0 5.1 1.7 9.3 5.4 13a16 16 0 0 0 12.7 5.4c5.2 0 9.3-1.7 13-5.4 3.7-3.7 5.4-7.9 5.4-13 0-5.2-1.7-9.3-5.4-12.5zm10.3 12.5c0 6.6-2.2 12-6.9 16.7a21.7 21.7 0 0 1-16.4 7c-6.6 0-12.2-2.4-16.6-7a22.1 22.1 0 0 1-7-16.7c0-6.4 2.3-11.8 7-16.2a22 22 0 0 1 16.6-6.8c6.6 0 12 2.2 16.4 6.8 4.7 4.4 7 9.8 7 16.2z" clip-rule="evenodd"/>
  <path fill="#3468B0" fill-rule="evenodd" d="M2260.8 25c2.5.3 3.7 2.3 3.7 6.2l1.3 5.4v.5h-6.4l-.3-4.9c0-3.2-1-5-2.7-5h-2.4v9.9h-5.7V12.4h9.8c4.5 0 6.7 2.2 6.7 6.8 0 3.7-1.3 5.6-4 6zm-6.8-2.4h2c2.2 0 3.1-1 3.1-3l-3.2-3.1h-2v6.1z" clip-rule="evenodd"/>
</svg>
