<?xml version="1.0" standalone="no"?>
<!DOCTYPE svg PUBLIC "-//W3C//DTD SVG 20010904//EN"
 "http://www.w3.org/TR/2001/REC-SVG-20010904/DTD/svg10.dtd">
<svg version="1.0" xmlns="http://www.w3.org/2000/svg"
 width="2480.000000pt" height="1063.000000pt" viewBox="0 0 2480.000000 1063.000000"
 preserveAspectRatio="xMidYMid meet">

<g transform="translate(0.000000,1063.000000) scale(0.100000,-0.100000)"
fill="#000000" stroke="none">
<path d="M6377 9810 c-190 -48 -303 -271 -268 -527 22 -162 95 -270 209 -313
46 -18 74 -21 142 -18 98 4 141 21 197 78 20 21 40 37 44 35 4 -3 10 -25 13
-50 7 -43 9 -45 42 -45 l34 0 0 220 0 220 -165 0 -165 0 0 -45 0 -45 120 0
120 0 -6 -42 c-3 -24 -10 -59 -15 -78 -49 -193 -341 -217 -432 -35 -46 92 -50
307 -8 402 27 62 92 125 146 143 52 17 144 7 197 -22 33 -17 50 -36 72 -80
l28 -58 49 0 48 0 -15 53 c-39 134 -132 203 -284 212 -36 2 -82 0 -103 -5z"/>
<path d="M11380 9806 c-169 -45 -274 -238 -255 -466 17 -195 81 -309 206 -365
56 -25 70 -27 148 -23 72 3 95 9 140 33 66 37 122 107 150 192 30 90 30 93
-28 93 -48 0 -50 -1 -56 -32 -12 -52 -51 -123 -84 -151 -41 -34 -118 -50 -179
-36 -76 16 -116 49 -154 126 -30 62 -33 77 -37 180 -5 182 41 293 142 342 56
27 146 28 204 1 44 -20 103 -95 103 -132 0 -15 8 -18 50 -18 46 0 50 2 50 24
0 43 -62 148 -108 183 -76 58 -189 77 -292 49z"/>
<path d="M12140 9807 c-96 -27 -163 -88 -211 -192 -69 -146 -65 -363 8 -498
88 -160 298 -221 470 -135 123 61 203 224 203 413 0 259 -124 411 -342 421
-50 2 -101 -1 -128 -9z m232 -120 c89 -52 131 -144 132 -292 1 -120 -25 -209
-80 -274 -52 -60 -86 -75 -175 -75 -141 -1 -221 68 -255 220 -30 135 0 292 69
371 18 20 54 47 82 60 67 32 163 28 227 -10z"/>
<path d="M5080 9385 l0 -415 50 0 50 0 2 193 3 192 195 0 195 0 3 -192 2 -193
50 0 50 0 0 415 0 415 -50 0 -50 0 -2 -172 -3 -173 -195 0 -195 0 -3 173 -2
172 -50 0 -50 0 0 -415z"/>
<path d="M5860 9385 l0 -415 50 0 50 0 0 415 0 415 -50 0 -50 0 0 -415z"/>
<path d="M6977 9793 c-4 -3 -7 -190 -7 -415 l0 -408 50 0 50 0 0 415 0 415
-43 0 c-24 0 -47 -3 -50 -7z"/>
<path d="M7250 9385 l0 -415 280 0 280 0 0 44 c0 31 -5 46 -16 50 -9 3 -112 6
-230 6 l-214 0 0 140 0 140 210 0 210 0 0 45 0 45 -210 0 -210 0 0 130 0 130
225 0 225 0 0 50 0 50 -275 0 -275 0 0 -415z"/>
<path d="M7947 9794 c-4 -4 -7 -191 -7 -416 l0 -408 50 0 50 0 2 331 3 331
190 -331 190 -331 58 0 57 0 0 415 0 415 -44 0 c-32 0 -46 -5 -50 -17 -4 -10
-6 -156 -5 -326 1 -169 0 -310 -3 -312 -2 -2 -87 143 -189 323 l-186 327 -54
3 c-30 2 -58 0 -62 -4z"/>
<path d="M8710 9385 l0 -415 281 0 280 0 -3 48 -3 47 -200 2 c-110 2 -212 3
-227 3 l-28 0 0 140 0 140 210 0 210 0 0 45 0 45 -210 0 -210 0 0 130 0 130
225 0 225 0 0 50 0 50 -275 0 -275 0 0 -415z"/>
<path d="M9698 9794 c-5 -4 -8 -191 -8 -416 l0 -408 194 0 c217 0 257 8 315
63 49 47 71 100 71 177 0 88 -26 142 -83 177 l-43 27 37 36 c94 89 68 264 -48
322 -44 21 -63 23 -238 26 -104 2 -193 0 -197 -4z m383 -110 c66 -34 76 -144
18 -200 -30 -29 -31 -29 -170 -32 l-139 -4 0 126 0 126 130 0 c99 0 138 -4
161 -16z m20 -348 c52 -24 73 -69 67 -140 -4 -45 -11 -63 -33 -86 -39 -41 -79
-50 -222 -50 l-123 0 0 143 c0 79 3 147 8 151 4 5 66 6 137 4 95 -3 140 -9
166 -22z"/>
<path d="M10403 9785 c-12 -32 5 -577 20 -630 40 -143 122 -204 273 -205 110
0 163 19 217 80 73 81 79 116 84 468 l5 302 -50 0 -50 0 -4 -302 c-3 -281 -5
-306 -25 -349 -24 -53 -60 -82 -123 -99 -90 -24 -173 10 -212 88 -22 45 -23
58 -28 352 l-5 305 -48 3 c-37 2 -49 -1 -54 -13z"/>
<path d="M12740 9386 l0 -416 188 0 c175 0 190 2 237 24 123 57 195 207 195
405 0 180 -71 316 -195 373 -45 20 -68 23 -237 26 l-188 4 0 -416z m373 300
c50 -18 74 -41 103 -97 70 -140 51 -370 -41 -465 -50 -53 -90 -64 -227 -64
l-108 0 0 320 0 320 118 0 c72 -1 132 -6 155 -14z"/>
<path d="M13507 9793 c-4 -3 -7 -190 -7 -415 l0 -408 280 0 280 0 0 50 0 50
-230 0 -230 0 0 140 0 140 210 0 210 0 0 45 0 45 -210 0 -210 0 0 130 0 130
225 0 225 0 0 50 0 50 -268 0 c-148 0 -272 -3 -275 -7z"/>
<path d="M14200 9385 l0 -415 45 0 45 0 0 332 c0 182 3 328 8 324 4 -4 90
-152 192 -329 l186 -322 57 -3 57 -3 0 416 0 415 -45 0 -45 0 -2 -337 -3 -337
-190 337 -190 337 -57 0 -58 0 0 -415z"/>
<path d="M14890 9750 l0 -50 130 0 130 0 0 -365 0 -365 50 0 50 0 0 365 0 365
125 0 125 0 0 50 0 50 -305 0 -305 0 0 -50z"/>
<path d="M15811 9778 c-26 -69 -271 -791 -271 -799 0 -5 22 -9 50 -9 l49 0 39
123 38 122 150 3 150 3 39 -126 38 -125 54 0 c29 0 53 3 53 7 0 6 -252 769
-267 811 -3 7 -25 12 -59 12 -47 0 -56 -3 -63 -22z m113 -275 c27 -87 51 -166
54 -175 4 -16 -6 -18 -113 -18 -90 0 -116 3 -112 13 2 6 28 85 58 175 29 89
56 162 59 162 3 0 27 -71 54 -157z"/>
<path d="M16300 9385 l0 -415 240 0 240 0 0 51 c0 46 -2 50 -22 49 -13 -1 -98
-2 -190 -1 l-168 1 0 365 0 365 -50 0 -50 0 0 -415z"/>
<path d="M2611 9144 c-433 -52 -633 -212 -712 -569 -20 -91 -22 -135 -26 -497
l-5 -398 -214 0 -214 0 0 -290 0 -290 210 0 210 0 0 -1400 0 -1400 470 0 470
0 2 1398 3 1397 218 3 217 2 0 290 0 290 -221 0 -222 0 6 288 c5 313 13 367
65 452 52 85 163 130 319 130 l73 0 0 299 0 298 -92 7 c-146 10 -433 5 -557
-10z"/>
<path d="M12631 7780 c1 -8 -1 -22 -4 -30 -4 -8 -6 -787 -5 -1730 l3 -1715 3
1721 2 1722 23 7 c17 5 18 8 7 12 -8 3 -19 11 -23 17 -5 7 -7 6 -6 -4z"/>
<path d="M12670 7780 c8 -6 24 -10 35 -11 17 -1 16 -2 -5 -9 -21 -7 -21 -8 -5
-9 11 0 27 4 35 9 12 8 12 10 1 10 -8 0 -12 3 -9 6 4 3 21 2 40 -3 18 -5 47
-6 63 -2 l30 7 -35 0 c-19 1 -64 3 -100 6 -42 3 -59 2 -50 -4z"/>
<path d="M14231 7778 c-1 -10 -5 -18 -11 -18 -7 0 -9 -581 -8 -1727 l3 -1728
5 1725 5 1725 70 -1 c46 -1 61 1 45 6 -14 5 -41 8 -62 9 -20 1 -39 7 -41 14
-3 7 -6 5 -6 -5z"/>
<path d="M15965 7780 c22 -4 30 -8 18 -8 -12 -1 -25 -7 -29 -14 -5 -8 3 -9 31
-5 68 11 61 29 -12 32 l-48 3 40 -8z"/>
<path d="M14410 7763 c36 -7 74 -12 85 -10 11 3 4 5 -15 6 -20 1 -30 5 -23 9
6 4 -16 8 -50 8 l-62 1 65 -14z"/>
<path d="M14534 7766 c21 -17 49 -19 81 -6 15 6 10 7 -20 7 -22 -1 -49 2 -60
7 -20 8 -20 7 -1 -8z"/>
<path d="M16080 7768 c0 -4 17 -8 38 -8 20 0 48 -3 62 -6 l25 -5 -25 15 c-26
15 -100 18 -100 4z"/>
<path d="M12918 7763 c6 -2 18 -2 25 0 6 3 1 5 -13 5 -14 0 -19 -2 -12 -5z"/>
<path d="M15858 7763 c12 -2 32 -2 45 0 12 2 2 4 -23 4 -25 0 -35 -2 -22 -4z"/>
<path d="M16225 7760 c4 -6 11 -8 16 -5 14 9 11 15 -7 15 -8 0 -12 -5 -9 -10z"/>
<path d="M12598 6653 c1 -610 3 -1387 5 -1728 1 -341 3 157 5 1108 1 950 -1
1727 -5 1727 -5 0 -7 -498 -5 -1107z"/>
<path d="M12868 7753 c7 -3 16 -2 19 1 4 3 -2 6 -13 5 -11 0 -14 -3 -6 -6z"/>
<path d="M13050 7741 c0 -5 5 -13 11 -16 7 -5 4 -14 -7 -26 -10 -12 -13 -19
-5 -19 6 0 14 7 18 16 4 11 14 14 37 10 17 -3 24 -3 16 1 -8 3 -27 15 -42 25
-16 11 -28 15 -28 9z"/>
<path d="M13084 7741 c3 -5 16 -11 28 -14 22 -6 22 -5 4 8 -22 17 -40 20 -32
6z"/>
<path d="M16341 7732 c3 -30 -1 -37 -11 -22 -7 12 -9 10 -7 -7 1 -16 5 -19 17
-13 8 4 29 6 45 4 l30 -5 -29 17 c-20 11 -25 18 -17 24 9 5 6 9 -9 13 -15 4
-21 1 -19 -11z"/>
<path d="M4700 7729 c-579 -70 -896 -336 -1030 -860 -99 -388 -104 -1242 -9
-1694 109 -518 387 -805 878 -905 292 -59 713 -48 969 26 102 29 221 79 300
126 88 51 258 227 312 322 163 291 223 632 223 1281 0 343 -10 501 -44 695
-102 592 -398 898 -964 996 -107 19 -520 27 -635 13z m412 -609 c168 -52 248
-205 278 -535 13 -142 13 -899 0 -1075 -29 -391 -93 -569 -232 -641 -63 -32
-166 -45 -258 -31 -268 39 -338 222 -361 948 -11 359 0 775 26 932 38 235 117
357 259 402 83 26 204 26 288 0z"/>
<path d="M8586 7729 c-155 -23 -308 -83 -415 -164 -75 -57 -163 -164 -211
-258 -19 -37 -38 -67 -42 -67 -5 0 -8 99 -8 220 l0 220 -445 0 -445 0 0 -1690
0 -1690 470 0 469 0 3 1053 c3 984 5 1056 22 1117 61 216 182 338 396 400 59
18 111 23 248 27 l172 6 0 418 0 419 -77 -1 c-43 -1 -105 -5 -137 -10z"/>
<path d="M10170 7730 c-267 -33 -438 -95 -630 -228 -228 -158 -287 -252 -311
-489 -7 -67 -8 -117 -3 -122 5 -5 205 -48 444 -95 239 -48 442 -89 451 -92 14
-4 17 10 23 93 22 305 115 414 356 415 203 1 309 -68 357 -234 11 -38 17 -120
20 -285 l5 -233 -188 0 c-560 0 -918 -73 -1154 -233 -59 -41 -164 -141 -205
-197 -113 -155 -179 -376 -191 -645 -13 -271 37 -542 132 -725 133 -254 344
-391 652 -422 201 -20 390 8 550 83 159 73 290 190 395 352 42 63 53 75 59 60
6 -16 38 -367 38 -415 0 -17 28 -18 440 -18 l440 0 -5 38 c-35 246 -38 339
-45 1442 -7 1171 -7 1150 -55 1316 -102 350 -374 546 -862 619 -127 19 -595
29 -713 15z m710 -2061 c0 -184 -5 -292 -15 -366 -35 -234 -116 -378 -249
-443 -163 -80 -341 -59 -441 52 -79 88 -109 206 -109 433 1 223 37 349 129
440 99 100 256 137 608 144 l77 1 0 -261z"/>
<path d="M14720 7734 c0 -2 9 -8 20 -14 11 -6 20 -7 20 -2 0 6 -9 12 -20 15
-11 3 -20 3 -20 1z"/>
<path d="M18440 7729 c-318 -38 -553 -134 -718 -293 -154 -147 -249 -320 -312
-567 -100 -389 -104 -1258 -9 -1698 112 -516 390 -802 878 -901 317 -64 727
-46 997 45 191 63 319 140 451 268 94 91 161 184 222 305 40 80 111 274 111
303 0 10 -129 45 -453 123 -248 60 -461 111 -473 114 -20 4 -21 -2 -27 -95
-16 -246 -97 -404 -240 -469 -53 -24 -75 -28 -152 -28 -76 -1 -98 3 -145 25
-110 52 -191 170 -235 342 -31 124 -44 237 -52 455 l-6 182 906 0 907 0 0 218
c0 693 -103 1078 -359 1345 -153 160 -369 263 -656 313 -106 19 -520 28 -635
13z m443 -598 c113 -44 194 -156 232 -321 21 -88 36 -440 20 -446 -6 -3 -199
-3 -430 -2 l-420 3 2 155 c4 361 105 571 301 627 71 20 223 11 295 -16z"/>
<path d="M22305 7729 c-103 -14 -251 -68 -330 -120 -83 -54 -176 -144 -232
-226 l-38 -56 -5 174 -5 174 -467 3 -468 2 0 -1690 0 -1690 470 0 470 0 0
1238 c1 1365 0 1339 62 1462 56 109 148 160 293 160 178 0 281 -85 332 -272
16 -57 17 -176 20 -1325 l4 -1263 470 0 469 0 -2 1423 -3 1422 -27 80 c-90
263 -296 432 -603 496 -96 20 -296 24 -410 8z"/>
<path d="M13145 7720 c-3 -5 -1 -10 4 -10 6 0 11 5 11 10 0 6 -2 10 -4 10 -3
0 -8 -4 -11 -10z"/>
<path d="M16395 7720 c-3 -5 -2 -10 4 -10 5 0 16 -3 25 -6 10 -4 16 -1 16 7 0
7 -3 9 -7 6 -3 -4 -12 -2 -19 4 -8 7 -14 7 -19 -1z"/>
<path d="M13170 7710 c0 -5 -6 -10 -13 -10 -8 0 -14 -6 -14 -13 0 -14 40 -17
53 -4 12 11 26 8 18 -5 -4 -7 -3 -8 5 -4 9 6 9 11 0 22 -6 7 -15 11 -20 8 -5
-3 -9 0 -9 5 0 6 -4 11 -10 11 -5 0 -10 -4 -10 -10z m20 -20 c0 -5 -4 -10 -10
-10 -5 0 -10 5 -10 10 0 6 5 10 10 10 6 0 10 -4 10 -10z"/>
<path d="M14762 7698 c-23 -11 -40 -23 -38 -26 3 -3 11 0 18 5 7 6 24 14 38
17 24 7 24 6 6 -8 -11 -9 -15 -16 -9 -16 7 0 15 5 18 10 5 8 11 7 21 -1 12
-10 18 -9 30 4 8 9 9 12 2 7 -19 -16 -32 -12 -18 5 11 13 10 14 -5 9 -13 -5
-16 -4 -11 4 10 17 -2 14 -52 -10z"/>
<path d="M16463 7688 c8 -13 20 -22 26 -21 6 2 15 -6 21 -17 6 -11 18 -20 28
-20 13 0 14 -2 3 -9 -9 -6 -10 -11 -2 -15 10 -6 13 0 10 20 0 4 5 11 13 16 10
7 10 9 -2 7 -30 -3 -40 1 -40 17 0 8 -4 13 -9 9 -6 -3 -13 1 -18 8 -4 7 -16
17 -27 20 -18 7 -18 6 -3 -15z"/>
<path d="M13085 7680 c-3 -6 1 -7 9 -4 18 7 21 14 7 14 -6 0 -13 -4 -16 -10z"/>
<path d="M14865 7681 c-3 -6 0 -8 9 -5 11 4 14 -1 12 -21 -2 -14 3 -32 10 -39
7 -8 10 -16 7 -20 -4 -3 2 -6 12 -6 13 0 15 3 7 13 -7 8 -7 18 -2 27 14 22 12
28 -7 26 -10 0 -18 5 -18 13 0 18 -21 26 -30 12z"/>
<path d="M16358 7673 c7 -3 16 -2 19 1 4 3 -2 6 -13 5 -11 0 -14 -3 -6 -6z"/>
<path d="M13289 7657 c-1 -1 -3 -15 -5 -32 -2 -22 -1 -26 6 -15 8 13 14 8 12
-10 0 -3 14 -6 33 -7 31 -1 32 0 17 18 -9 11 -27 19 -39 19 -13 0 -23 4 -23
10 0 5 7 7 15 4 8 -4 15 -4 15 -1 0 5 -29 18 -31 14z m51 -47 c0 -5 -4 -10 -9
-10 -6 0 -13 5 -16 10 -3 6 1 10 9 10 9 0 16 -4 16 -10z"/>
<path d="M16483 7635 c0 -8 7 -15 16 -16 12 0 11 -2 -4 -8 -18 -7 -17 -8 7
-13 27 -5 27 -5 12 23 -16 31 -31 38 -31 14z"/>
<path d="M14940 7619 c0 -17 3 -19 13 -10 23 18 41 -8 20 -31 -11 -13 -12 -18
-3 -18 10 0 10 -3 1 -14 -12 -14 -10 -15 28 -7 2 1 -2 8 -9 16 -9 11 -10 19
-3 26 7 7 13 2 18 -18 8 -33 24 -55 36 -48 4 3 6 12 3 20 -4 8 -10 13 -14 10
-5 -3 -12 5 -15 17 -9 27 -33 56 -57 69 -15 8 -18 6 -18 -12z"/>
<path d="M16570 7620 c0 -5 7 -10 16 -10 8 0 12 5 9 10 -3 6 -10 10 -16 10 -5
0 -9 -4 -9 -10z"/>
<path d="M16577 7586 c-11 -28 25 -61 67 -61 19 0 32 3 30 6 -2 4 -15 7 -29 7
-31 0 -53 17 -57 45 -3 21 -4 21 -11 3z"/>
<path d="M16606 7592 c-3 -5 3 -17 14 -27 23 -21 26 -9 6 18 -8 10 -17 14 -20
9z"/>
<path d="M13380 7570 c0 -5 5 -10 11 -10 5 0 7 5 4 10 -3 6 -8 10 -11 10 -2 0
-4 -4 -4 -10z"/>
<path d="M13369 7548 c9 -12 10 -18 2 -18 -6 0 -11 -5 -11 -11 0 -8 4 -8 14 0
10 8 16 9 21 1 3 -5 12 -10 18 -9 9 0 9 2 0 6 -7 2 -13 12 -13 21 0 8 -3 12
-7 9 -3 -4 -13 -1 -22 6 -14 11 -14 10 -2 -5z"/>
<path d="M16560 7532 c0 -12 19 -26 26 -19 2 2 -2 10 -11 17 -9 8 -15 8 -15 2z"/>
<path d="M16657 7492 c-9 -10 -17 -23 -17 -28 0 -5 4 -3 9 4 6 11 13 8 29 -12
11 -14 26 -26 33 -26 9 0 10 3 4 8 -5 4 -11 16 -13 27 -2 11 -9 26 -16 33 -10
10 -16 9 -29 -6z m33 -13 c0 -6 -4 -7 -10 -4 -5 3 -10 11 -10 16 0 6 5 7 10 4
6 -3 10 -11 10 -16z"/>
<path d="M13445 7410 c0 -35 5 -64 11 -68 7 -4 19 -23 27 -42 14 -32 15 -33
13 -8 -2 15 -11 37 -21 48 -10 11 -13 20 -7 20 7 0 12 5 12 11 0 8 -5 8 -15
-1 -12 -10 -15 -10 -15 3 0 9 8 21 18 27 16 11 16 11 0 6 -15 -5 -17 0 -12 29
3 19 1 35 -3 35 -5 0 -8 -27 -8 -60z"/>
<path d="M15045 7461 c-3 -5 -1 -13 5 -16 8 -5 8 -11 0 -20 -7 -8 -10 -22 -7
-32 4 -14 5 -14 6 4 2 32 20 38 30 11 8 -19 10 -20 10 -4 1 10 -7 25 -16 32
-17 13 -17 14 2 7 19 -6 19 -6 3 10 -19 19 -25 21 -33 8z"/>
<path d="M16650 7446 c0 -2 7 -7 16 -10 8 -3 12 -2 9 4 -6 10 -25 14 -25 6z"/>
<path d="M15061 7393 c-1 -6 -3 -18 -7 -26 -4 -10 3 -14 23 -13 17 1 28 7 29
16 0 9 -1 10 -3 3 -7 -19 -19 -16 -31 10 -6 12 -11 17 -11 10z"/>
<path d="M16727 7359 c4 -13 8 -18 11 -10 2 7 -1 18 -6 23 -8 8 -9 4 -5 -13z"/>
<path d="M16737 7323 c-4 -3 -7 -13 -7 -22 1 -13 3 -13 11 2 11 19 8 33 -4 20z"/>
<path d="M13450 7307 c0 -9 5 -19 10 -22 6 -4 7 -11 4 -17 -4 -7 -2 -8 4 -4 9
5 9 13 1 29 -16 31 -19 33 -19 14z"/>
<path d="M13447 7255 c4 -16 9 -687 13 -1490 l5 -1460 2 1445 c2 1262 1 1451
-12 1490 -9 25 -12 32 -8 15z"/>
<path d="M16722 7240 c0 -19 2 -27 5 -17 2 9 2 25 0 35 -3 9 -5 1 -5 -18z"/>
<path d="M13481 7225 c1 -40 1 -40 10 -10 5 18 5 33 -1 39 -7 7 -10 -4 -9 -29z"/>
<path d="M16736 7201 c-4 -6 -2 -11 3 -11 8 0 12 -435 13 -1442 l3 -1443 2
1438 c2 797 -1 1446 -6 1454 -6 11 -10 12 -15 4z"/>
<path d="M15122 7180 c0 -14 2 -19 5 -12 2 6 2 18 0 25 -3 6 -5 1 -5 -13z"/>
<path d="M13505 5750 c0 -795 1 -1120 2 -723 2 398 2 1048 0 1446 -1 397 -2
72 -2 -723z"/>
<path d="M15122 7090 c0 -14 2 -19 5 -12 2 6 2 18 0 25 -3 6 -5 1 -5 -13z"/>
<path d="M15122 7010 c0 -14 2 -19 5 -12 2 6 2 18 0 25 -3 6 -5 1 -5 -13z"/>
<path d="M15122 6930 c0 -14 2 -19 5 -12 2 6 2 18 0 25 -3 6 -5 1 -5 -13z"/>
<path d="M15122 5300 c0 -14 2 -19 5 -12 2 6 2 18 0 25 -3 6 -5 1 -5 -13z"/>
<path d="M15124 4870 c0 -91 2 -128 3 -82 2 45 2 119 0 165 -1 45 -3 8 -3 -83z"/>
<path d="M15121 4484 c0 -11 3 -14 6 -6 3 7 2 16 -1 19 -3 4 -6 -2 -5 -13z"/>
<path d="M11653 3598 c7 -4 2611 -8 5787 -8 l5775 0 5 -527 5 -528 5 535 5
535 5 -535 c4 -469 3 -536 -10 -541 -8 -4 -18 -5 -22 -2 -5 2 -8 -1 -8 -6 0
-8 -1717 -11 -5796 -11 -3668 0 -5802 -3 -5812 -9 -13 -8 -6 -10 28 -11 25 -1
2644 -2 5820 -3 l5775 -2 -5770 5 -5770 5 5754 3 c4095 1 5764 5 5790 13 l36
11 -2 539 -3 539 -5804 3 c-3192 1 -5799 -1 -5793 -5z"/>
<path d="M11375 3550 c-4 -6 -11 -7 -17 -4 -7 4 -8 2 -4 -4 7 -12 36 -5 36 9
0 12 -7 11 -15 -1z"/>
<path d="M11430 3555 c1 -25 17 -35 41 -26 21 9 22 10 4 10 -12 1 -26 6 -33
13 -7 7 -12 8 -12 3z"/>
<path d="M11401 3532 c-8 -14 -5 -18 12 -19 16 -2 18 0 8 6 -7 5 -10 14 -7 20
4 6 5 11 2 11 -3 0 -10 -8 -15 -18z"/>
<path d="M11320 3530 c-13 -8 -12 -10 3 -10 9 0 17 5 17 10 0 12 -1 12 -20 0z"/>
<path d="M11492 3524 c-14 -16 -5 -18 17 -5 7 5 9 11 5 14 -5 3 -15 -1 -22 -9z"/>
<path d="M11225 3465 c-11 -12 -23 -21 -26 -19 -4 2 -13 -4 -20 -14 -12 -15
-12 -16 1 -6 8 6 28 11 43 10 16 -1 31 2 33 6 3 5 9 6 14 3 4 -3 7 2 6 11 -4
30 -30 34 -51 9z m35 -10 c-7 -8 -16 -12 -21 -9 -13 8 -1 24 18 24 13 0 13 -3
3 -15z"/>
<path d="M11158 3408 c8 -10 9 -18 3 -22 -5 -4 -13 -1 -16 4 -9 15 -57 -51
-50 -68 4 -10 0 -12 -11 -8 -14 5 -15 4 -4 -9 7 -8 17 -12 23 -8 6 4 8 0 4
-10 -3 -9 -3 -18 1 -21 5 -3 8 19 8 47 0 38 3 51 12 49 8 -1 11 2 7 8 -3 5 -1
10 4 10 6 0 11 -4 11 -10 0 -5 5 -10 10 -10 6 0 9 6 8 13 -2 6 5 11 14 11 10
-1 16 5 15 17 -1 12 -5 15 -12 9 -7 -6 -17 -5 -25 3 -12 10 -12 9 -2 -5z"/>
<path d="M11066 3275 c2 -11 -8 -30 -22 -44 -16 -15 -22 -30 -19 -42 4 -11 2
-19 -5 -19 -6 0 -8 -11 -4 -27 4 -22 3 -25 -5 -13 -9 12 -11 9 -11 -15 0 -23
3 -27 10 -15 7 11 12 12 18 3 4 -7 8 6 9 30 2 67 9 92 26 95 9 2 17 7 17 12 0
5 3 16 7 26 4 11 3 15 -5 11 -6 -4 -12 -2 -15 5 -2 7 -3 4 -1 -7z"/>
<path d="M11083 3215 c-8 -23 4 -30 22 -12 19 20 19 27 0 27 -9 0 -18 -7 -22
-15z"/>
<path d="M11006 3054 c-11 -28 -7 -44 9 -38 16 7 20 39 6 48 -5 3 -12 -1 -15
-10z"/>
<path d="M11001 2974 c-1 -12 6 -27 14 -34 9 -7 13 -20 10 -29 -2 -9 0 -23 5
-31 7 -10 8 2 5 39 -6 56 -14 80 -16 45 -1 -15 -3 -13 -9 6 -7 22 -8 23 -9 4z"/>
<path d="M11040 2860 c-11 -7 -11 -10 -2 -10 8 0 10 -5 6 -12 -4 -7 -3 -9 1
-5 7 6 17 37 12 37 -1 0 -9 -5 -17 -10z"/>
<path d="M11100 2860 c0 -5 -8 -6 -17 -3 -17 6 -17 6 -2 -9 13 -13 16 -35 10
-68 -1 -3 -6 2 -11 10 -8 13 -10 12 -10 -2 0 -22 23 -23 40 -3 9 10 9 15 1 15
-7 0 -9 13 -6 35 2 19 2 35 0 35 -3 0 -5 -4 -5 -10z"/>
<path d="M11060 2820 c-13 -8 -12 -10 3 -10 9 0 17 5 17 10 0 12 -1 12 -20 0z"/>
<path d="M11105 2760 c-4 -6 -11 -7 -17 -4 -7 4 -8 2 -4 -5 4 -6 11 -9 16 -6
4 3 10 -1 13 -7 3 -7 4 -3 4 10 -1 25 -3 26 -12 12z"/>
<path d="M11184 2683 c0 -11 -5 -17 -13 -15 -12 3 -12 1 -1 -13 13 -16 15 -16
21 2 11 26 11 43 0 43 -5 0 -8 -8 -7 -17z"/>
<path d="M11224 2616 c2 -6 9 -10 15 -8 7 1 21 -3 33 -9 15 -8 18 -8 14 0 -9
14 0 14 24 1 11 -6 17 -17 14 -25 -7 -18 12 -20 20 -2 3 6 3 2 0 -10 -3 -13
-2 -23 3 -23 12 0 14 38 2 46 -6 4 -5 12 3 22 10 14 10 15 -2 5 -20 -18 -35
-16 -20 2 8 9 8 15 2 15 -6 0 -13 -6 -15 -12 -4 -10 -8 -10 -15 1 -7 9 -12 10
-16 2 -4 -6 -12 -11 -17 -11 -6 0 -8 4 -5 8 2 4 -6 8 -20 8 -13 0 -23 -5 -20
-10z"/>
<path d="M11380 2540 c-18 -12 -2 -12 25 0 13 6 15 9 5 9 -8 0 -22 -4 -30 -9z"/>
<path d="M11430 2541 c0 -5 -8 -11 -17 -13 -15 -3 -14 -5 5 -10 12 -3 20 -2
17 2 -3 5 0 10 7 12 9 3 9 6 0 12 -7 4 -12 3 -12 -3z"/>
<path d="M11548 2544 c-3 -3 -16 -6 -29 -8 -33 -4 -59 -16 -59 -29 0 -5 8 -3
18 6 24 22 38 22 21 0 -8 -10 -9 -14 -2 -10 6 4 14 3 18 -3 3 -5 14 -10 23 -9
14 0 14 2 -3 10 -17 8 -16 9 8 6 15 -3 27 -1 27 3 0 4 21 14 48 23 26 9 40 16
31 16 -9 1 -33 -6 -54 -15 -20 -8 -47 -13 -59 -11 -21 4 -21 4 2 6 12 0 22 6
22 11 0 11 -4 13 -12 4z"/>
<path d="M14558 2543 c1585 -2 4179 -2 5765 0 1585 1 288 2 -2883 2 -3171 0
-4468 -1 -2882 -2z"/>
<path d="M23225 2490 c-3 -5 -2 -10 4 -10 5 0 13 5 16 10 3 6 2 10 -4 10 -5 0
-13 -4 -16 -10z"/>
<path d="M18278 1740 c-78 -42 -125 -134 -116 -227 6 -67 27 -104 114 -208
139 -166 165 -221 144 -303 -22 -87 -73 -132 -151 -132 -118 0 -203 111 -187
245 2 21 0 34 -6 32 -11 -4 -78 -319 -69 -327 2 -3 14 7 25 23 24 34 42 34
137 1 60 -21 88 -25 134 -21 136 12 227 120 227 267 0 73 -23 128 -87 202
-177 209 -183 219 -183 286 0 43 28 94 65 118 35 23 131 16 172 -14 40 -29 66
-84 71 -154 2 -32 7 -58 11 -58 9 0 64 280 57 288 -3 3 -17 -7 -30 -21 -31
-33 -40 -33 -108 -2 -68 32 -165 34 -220 5z"/>
<path d="M21268 1728 c-49 -16 -88 -34 -88 -39 0 -5 18 -9 40 -9 73 0 73 -4
-25 -385 -47 -186 -95 -356 -106 -377 -18 -35 -29 -42 -83 -50 -11 -2 -21 -9
-24 -15 -3 -10 31 -13 147 -13 128 0 151 2 151 15 0 8 -9 15 -21 15 -38 0 -59
19 -59 52 0 17 45 210 100 429 55 219 100 400 100 403 0 13 -49 3 -132 -26z"/>
<path d="M21812 1739 c-56 -28 -118 -99 -156 -179 -26 -55 -31 -79 -34 -160
-3 -88 -2 -99 25 -149 15 -30 40 -64 55 -75 33 -24 126 -33 157 -16 38 20 36
3 -9 -64 -73 -113 -234 -245 -297 -246 -7 0 -13 -4 -13 -10 0 -31 146 12 236
70 188 123 314 354 314 576 0 93 -18 161 -57 213 -47 62 -141 79 -221 40z
m146 -34 c45 -38 55 -73 49 -173 -6 -107 -57 -273 -93 -307 -52 -49 -131 -36
-169 28 -16 26 -20 50 -19 122 1 145 56 287 130 336 39 25 67 24 102 -6z"/>
<path d="M22481 1731 c-90 -28 -116 -51 -59 -51 40 0 58 -15 58 -48 0 -35
-158 -649 -180 -699 -19 -42 -44 -63 -78 -63 -11 0 -25 -7 -32 -15 -12 -14 4
-15 139 -13 92 2 151 7 151 13 1 6 -10 12 -22 13 -30 5 -58 30 -58 54 0 10 47
203 104 428 119 470 122 427 -23 381z"/>
<path d="M23025 1746 c-65 -29 -112 -97 -122 -174 -7 -60 8 -113 51 -184 l34
-57 -53 -30 c-79 -44 -121 -86 -151 -147 -23 -46 -26 -64 -22 -123 3 -58 9
-78 34 -113 43 -61 94 -88 172 -88 70 0 112 14 160 55 111 94 122 263 26 406
-19 28 -34 52 -34 54 0 2 25 17 55 34 90 51 139 152 115 240 -13 50 -63 109
-107 127 -41 18 -119 17 -158 0z m135 -31 c91 -47 82 -236 -14 -310 -18 -14
-39 -25 -47 -25 -14 0 -64 67 -93 127 -23 46 -21 130 4 171 31 51 93 66 150
37z m-111 -460 c85 -118 107 -228 63 -311 -29 -56 -76 -84 -140 -84 -43 0 -57
5 -85 30 -96 84 -60 284 70 383 20 15 42 27 48 27 6 0 26 -20 44 -45z"/>
<path d="M18832 1694 c-24 -17 -30 -61 -12 -95 13 -23 62 -26 84 -3 22 22 20
70 -4 94 -24 24 -38 25 -68 4z"/>
<path d="M18753 1422 c-53 -10 -83 -20 -83 -28 0 -9 10 -11 33 -7 66 10 66 -2
3 -252 -31 -124 -56 -237 -56 -253 0 -37 17 -52 57 -52 26 0 45 10 81 44 51
48 87 102 74 110 -5 3 -25 -15 -46 -39 -36 -43 -59 -55 -70 -36 -5 7 95 430
120 514 6 20 1 20 -113 -1z"/>
<path d="M19100 1424 c-107 -23 -111 -24 -104 -35 3 -6 17 -8 29 -5 24 6 55
-15 55 -37 0 -7 -27 -117 -60 -246 -33 -129 -60 -240 -60 -248 0 -21 77 -17
84 5 2 9 14 51 26 92 57 196 224 437 288 413 20 -8 14 -49 -40 -270 -43 -179
-50 -216 -40 -238 24 -53 100 -23 163 64 47 66 41 90 -7 26 -33 -42 -56 -55
-68 -37 -3 5 17 96 44 203 68 265 65 329 -14 329 -70 0 -125 -56 -255 -260
-12 -19 -20 -26 -17 -15 20 79 66 265 66 269 0 8 -14 6 -90 -10z"/>
<path d="M19804 1411 c-79 -40 -156 -122 -196 -208 -25 -53 -33 -84 -36 -149
-5 -98 7 -139 53 -184 32 -31 42 -35 105 -38 57 -4 77 0 117 19 75 36 176 149
133 149 -5 0 -14 -9 -20 -20 -16 -30 -87 -78 -132 -91 -78 -20 -151 30 -163
114 -13 84 35 236 103 325 48 63 139 98 196 76 22 -8 20 -36 -4 -67 -34 -43
-21 -87 26 -87 54 0 74 105 30 156 -20 24 -32 28 -87 32 -56 3 -72 0 -125 -27z"/>
<path d="M20375 1427 c-79 -31 -152 -96 -203 -178 -62 -102 -82 -250 -44 -325
35 -68 64 -88 137 -92 55 -4 73 0 118 21 67 34 163 119 153 136 -6 9 -15 7
-35 -12 -80 -75 -156 -100 -216 -71 -51 24 -75 66 -75 131 0 47 3 53 23 57
153 32 216 57 275 110 49 44 72 91 72 144 0 33 -6 45 -31 66 -25 22 -40 26
-87 25 -31 0 -70 -6 -87 -12z m107 -34 c40 -36 13 -119 -59 -183 -47 -41 -135
-80 -180 -80 -23 0 -25 3 -19 33 10 51 62 149 98 184 63 61 124 79 160 46z"/>
</g>
</svg>
